<svg width="58" height="62" viewBox="0 0 58 62" fill="none" xmlns="http://www.w3.org/2000/svg">
<path d="M26.087 2.62006C26.9781 2.12517 27.9807 1.86548 29 1.86548C30.0193 1.86548 31.0219 2.12517 31.913 2.62006L54.458 15.1421C54.9254 15.402 55.3148 15.7821 55.586 16.2431C55.8571 16.7041 56 17.2292 56 17.7641V42.4691C56.0003 43.5395 55.7142 44.5905 55.1714 45.5131C54.6286 46.4358 53.8488 47.1964 52.913 47.7161L31.913 59.3801C31.0219 59.8749 30.0193 60.1346 29 60.1346C27.9807 60.1346 26.9781 59.8749 26.087 59.3801L5.087 47.7131C4.15207 47.1938 3.3729 46.4342 2.83014 45.5127C2.28739 44.5913 2.00079 43.5415 2 42.4721V17.7641C1.99998 17.2292 2.14293 16.7041 2.41405 16.2431C2.68516 15.7821 3.07459 15.402 3.542 15.1421L26.087 2.62006Z" stroke="#198B44" stroke-width="3" stroke-linecap="round" stroke-linejoin="round"/>
<path d="M15.5 8.5L42.5 23.5V34M11 31.984L20 37" stroke="#198B44" stroke-width="3" stroke-linecap="round" stroke-linejoin="round"/>
<path d="M2 16L29 31M29 31L56 16M29 31V61" stroke="#198B44" stroke-width="3" stroke-linejoin="round"/>
</svg>
