<svg width="186" height="186" viewBox="0 0 186 186" fill="none" xmlns="http://www.w3.org/2000/svg">
<path d="M0 24C0 10.7451 10.7452 0 24 0H162C175.255 0 186 10.7452 186 24V162C186 175.255 175.255 186 162 186H98.153H55.5533C46.7167 186 39.5532 178.837 39.5532 170V168.406C39.5532 159.57 32.3898 152.406 23.5532 152.406H16C7.16345 152.406 0 145.243 0 136.406V24Z" fill="#EBFDE9"/>
<circle cx="18.2678" cy="172.382" r="13.6179" fill="#198B44"/>
<path d="M21.8886 168.905L21.8886 173.093C21.8886 173.143 21.8686 173.191 21.8331 173.227C21.7976 173.262 21.7494 173.282 21.6992 173.282C21.649 173.282 21.6008 173.262 21.5653 173.227C21.5298 173.191 21.5098 173.143 21.5098 173.093L21.5101 169.362L15.089 175.818C15.0535 175.853 15.0054 175.873 14.9552 175.873C14.9051 175.873 14.8569 175.853 14.8215 175.818C14.786 175.783 14.7661 175.734 14.7661 175.684C14.7661 175.634 14.786 175.586 14.8215 175.551L21.2426 169.094L17.5113 169.095C17.4611 169.095 17.4129 169.075 17.3774 169.039C17.3419 169.004 17.322 168.955 17.322 168.905C17.322 168.855 17.3419 168.807 17.3774 168.771C17.4129 168.736 17.4611 168.716 17.5113 168.716L21.6992 168.716C21.7241 168.716 21.7487 168.721 21.7717 168.73C21.7947 168.74 21.8156 168.754 21.8332 168.771C21.8508 168.789 21.8647 168.81 21.8742 168.833C21.8838 168.856 21.8886 168.88 21.8886 168.905Z" fill="white" stroke="white"/>
<path d="M100.556 160.28L105.826 167H103.306L98.6557 161V167H96.5457V153.8H98.6557V159.65L102.986 153.8H105.386L100.556 160.28ZM107.312 167V158.79H109.442V167H107.312ZM108.402 156.33C108.042 156.33 107.732 156.2 107.472 155.94C107.219 155.68 107.092 155.37 107.092 155.01C107.092 154.65 107.219 154.34 107.472 154.08C107.732 153.813 108.042 153.68 108.402 153.68C108.642 153.68 108.862 153.743 109.062 153.87C109.269 153.99 109.432 154.15 109.552 154.35C109.679 154.543 109.742 154.763 109.742 155.01C109.742 155.37 109.612 155.68 109.352 155.94C109.092 156.2 108.775 156.33 108.402 156.33ZM117.617 161.28L115.587 167H113.487L111.107 158.79H113.377L114.807 164.69L116.817 158.95H118.427L120.417 164.69L121.867 158.79H124.137L121.767 167H119.667L117.617 161.28ZM125.769 167V158.79H127.899V167H125.769ZM126.859 156.33C126.499 156.33 126.189 156.2 125.929 155.94C125.676 155.68 125.549 155.37 125.549 155.01C125.549 154.65 125.676 154.34 125.929 154.08C126.189 153.813 126.499 153.68 126.859 153.68C127.099 153.68 127.319 153.743 127.519 153.87C127.726 153.99 127.889 154.15 128.009 154.35C128.136 154.543 128.199 154.763 128.199 155.01C128.199 155.37 128.069 155.68 127.809 155.94C127.549 156.2 127.232 156.33 126.859 156.33Z" fill="black"/>
</svg>
